<svg xmlns="http://www.w3.org/2000/svg" xmlns:xlink="http://www.w3.org/1999/xlink" width="1080" zoomAndPan="magnify" viewBox="0 0 810 809.999993" height="1080" preserveAspectRatio="xMidYMid meet" version="1.0"><path fill="#f5ca53" d="M 712.53125 173.511719 C 665.28125 185.121094 654.75 189.980469 646.109375 205.371094 C 640.171875 215.632812 639.898438 217.519531 639.898438 312.019531 L 639.898438 408.140625 L 623.160156 411.109375 C 613.710938 413 603.449219 415.160156 600.210938 415.972656 C 594.269531 417.589844 594 417.050781 594 395.722656 C 594 370.609375 595.621094 371.691406 566.730469 378.171875 C 547.019531 382.761719 546.480469 383.03125 544.859375 402.203125 C 544.050781 409.761719 542.699219 410.570312 527.851562 414.890625 C 518.941406 417.320312 508.410156 419.480469 504.359375 419.480469 L 496.800781 419.75 L 496.800781 344.421875 C 496.800781 294.742188 497.878906 268.28125 499.5 267.203125 C 504.359375 264.230469 542.429688 255.589844 544.050781 257.210938 C 544.859375 258.019531 545.398438 268.011719 545.398438 279.621094 C 545.398438 293.390625 546.480469 300.953125 548.640625 301.492188 C 552.421875 302.839844 585.628906 295.28125 590.761719 292.042969 C 592.921875 290.421875 594 280.160156 594 256.402344 L 594 223.191406 L 585.628906 216.171875 C 581.039062 212.121094 574.019531 209.152344 569.699219 209.152344 C 559.710938 209.152344 484.378906 226.972656 473.308594 231.832031 C 468.71875 233.992188 461.429688 240.472656 457.109375 245.871094 L 449.550781 255.859375 L 448.199219 354.410156 L 446.851562 452.960938 L 426.601562 457.820312 C 415.53125 460.519531 404.730469 462.679688 403.109375 462.953125 C 400.410156 462.953125 399.601562 447.832031 399.601562 395.722656 C 399.601562 358.460938 398.789062 327.679688 397.441406 327.140625 C 394.738281 325.25 358.558594 333.351562 354.511719 336.859375 C 351.808594 338.75 351 356.300781 351 407.601562 L 351 475.640625 L 343.171875 477.261719 C 338.851562 478.070312 332.371094 479.691406 328.320312 480.769531 C 321.839844 482.390625 321.300781 481.851562 321.300781 474.019531 C 321.300781 463.761719 319.949219 463.761719 289.441406 471.050781 C 277.019531 474.019531 265.949219 476.453125 264.328125 476.453125 C 262.980469 476.453125 261.898438 437.839844 261.898438 379.25 C 261.898438 291.769531 261.359375 282.050781 257.578125 282.050781 C 250.289062 282.050781 220.320312 290.421875 216.808594 293.390625 C 214.109375 295.550781 213.300781 320.660156 213.300781 401.929688 L 213.300781 507.769531 L 193.589844 512.359375 C 168.75 518.300781 160.648438 523.429688 179.550781 521.269531 C 198.988281 519.109375 205.199219 517.761719 212.21875 512.902344 C 215.730469 510.742188 218.96875 508.582031 219.238281 508.042969 C 219.511719 507.769531 220.320312 460.25 221.128906 402.472656 L 222.75 297.171875 L 236.25 293.660156 C 243.808594 291.769531 251.371094 290.691406 253.261719 291.5 C 255.691406 292.3125 256.5 313.371094 256.5 383.300781 C 256.5 462.679688 257.039062 474.5625 260.820312 478.339844 C 264.601562 482.390625 267.03125 482.390625 288.359375 478.070312 L 311.578125 473.75 L 317.789062 480.769531 C 323.460938 487.519531 324.269531 487.792969 337.230469 484.550781 C 344.789062 482.929688 352.351562 479.421875 354.238281 477.261719 C 356.941406 474.019531 357.75 457.28125 358.019531 410.570312 C 358.289062 376.28125 358.558594 346.851562 358.828125 344.960938 C 359.101562 341.722656 371.789062 337.402344 385.828125 335.511719 L 392.308594 334.703125 L 392.851562 397.339844 C 393.390625 474.019531 392.308594 471.589844 423.359375 464.839844 C 457.109375 457.550781 454.949219 464.570312 455.488281 359.542969 C 456.03125 310.402344 456.839844 266.121094 457.648438 261.53125 C 460.621094 243.441406 481.949219 233.179688 541.351562 221.03125 C 582.929688 212.660156 587.789062 216.441406 588.328125 257.480469 C 588.871094 287.992188 588.871094 288.261719 566.460938 291.5 L 553.5 293.390625 L 553.5 277.460938 C 553.5 252.351562 542.699219 246.953125 511.648438 256.671875 C 489.78125 263.691406 489.78125 263.691406 489.78125 346.3125 C 490.050781 416.511719 490.050781 417.589844 495.988281 422.453125 C 502.199219 427.3125 508.679688 427.042969 533.789062 420.019531 C 545.941406 416.78125 553.5 407.0625 553.5 395.453125 C 553.5 389.242188 562.140625 384.921875 577.53125 383.839844 L 587.25 383.300781 L 588.058594 399.769531 C 589.140625 422.179688 594 425.152344 620.730469 418.402344 C 631.261719 415.972656 641.25 411.921875 643.140625 409.761719 C 645.839844 406.519531 646.648438 383.300781 646.648438 310.132812 C 646.921875 218.0625 647.191406 214.28125 652.320312 207.261719 C 660.148438 196.730469 670.949219 191.0625 694.171875 185.121094 C 756 169.191406 771.390625 168.382812 777.058594 181.070312 C 778.949219 185.121094 780.300781 203.210938 780.300781 226.972656 C 780.300781 271.25 778.140625 279.351562 763.289062 289.339844 C 755.191406 295.011719 726.03125 303.921875 704.429688 307.429688 C 699.03125 308.511719 692.011719 312.019531 688.5 315.800781 C 682.828125 321.742188 682.289062 325.25 682.019531 347.121094 C 681.75 370.609375 682.019531 372.230469 688.5 377.089844 C 694.980469 381.679688 696.601562 381.953125 711.71875 378.441406 C 737.101562 372.5 743.578125 366.832031 745.738281 349.820312 C 746.28125 344.152344 748.980469 342.53125 760.050781 339.5625 C 781.648438 334.160156 781.109375 333.621094 779.761719 354.953125 C 778.679688 370.609375 777.058594 375.203125 770.578125 382.761719 C 766.261719 387.890625 759.238281 393.292969 754.648438 394.910156 C 750.328125 396.261719 725.21875 404.902344 699.300781 414.082031 C 673.378906 423.261719 639.359375 435.140625 623.699219 440.269531 C 582.929688 454.042969 542.160156 468.351562 535.949219 471.050781 C 532.980469 472.402344 513.539062 479.152344 492.75 486.171875 C 471.960938 492.921875 443.609375 502.910156 429.839844 508.042969 C 408.511719 515.871094 305.101562 552.050781 256.5 568.25 C 248.398438 571.222656 224.101562 579.589844 202.5 587.152344 C 180.898438 594.980469 154.980469 603.890625 144.449219 607.402344 C 134.191406 610.910156 109.890625 619.550781 90.449219 626.300781 C 71.28125 633.320312 50.21875 640.609375 44.011719 642.5 C 33.210938 645.742188 32.671875 645.742188 31.050781 639.261719 C 30.238281 635.480469 29.699219 611.992188 29.96875 586.882812 C 30.511719 535.3125 29.160156 538.28125 52.648438 533.421875 C 92.070312 525.320312 115.289062 518.570312 120.960938 513.441406 C 126.089844 508.851562 126.898438 505.070312 126.898438 489.953125 C 126.898438 474.832031 125.820312 471.050781 120.691406 466.191406 C 117.449219 463.222656 113.941406 460.519531 112.589844 460.519531 C 107.191406 460.519531 83.160156 456.472656 67.769531 452.960938 C 35.101562 445.671875 29.699219 437.03125 29.699219 391.671875 C 29.699219 369.800781 30.78125 363.320312 35.371094 354.953125 C 42.929688 341.722656 49.949219 337.941406 85.050781 329.570312 C 101.519531 325.519531 119.070312 321.203125 124.46875 319.851562 C 139.859375 315.53125 152.550781 316.609375 157.679688 322.28125 C 161.460938 326.332031 162 331.730469 161.460938 351.171875 L 160.648438 374.929688 L 145.800781 378.171875 C 137.699219 380.0625 130.410156 381.140625 129.871094 380.332031 C 129.328125 379.792969 128.519531 374.929688 127.980469 369.53125 C 127.441406 364.132812 125.820312 358.191406 123.929688 356.03125 C 119.878906 351.171875 106.921875 351.171875 89.101562 356.570312 C 69.121094 362.511719 65.070312 368.453125 65.070312 390.050781 C 65.070312 414.351562 69.929688 419.75 95.851562 423.800781 C 103.410156 425.152344 109.890625 426.230469 110.699219 426.5 C 111.511719 426.5 120.421875 428.390625 130.410156 430.28125 C 145.800781 433.25 149.851562 435.410156 155.25 442.703125 C 161.460938 450.800781 162 453.5 162 484.011719 C 162 502.101562 163.078125 516.953125 164.429688 516.953125 C 168.75 516.953125 170.101562 508.851562 170.101562 481.3125 C 170.101562 451.339844 166.050781 438.921875 154.441406 431.089844 C 150.660156 428.660156 131.21875 423.53125 110.96875 419.75 L 74.25 412.730469 L 74.25 367.101562 L 91.800781 362.511719 C 120.960938 354.953125 121.5 355.222656 121.5 372.230469 C 121.5 380.332031 122.578125 387.621094 123.929688 388.703125 C 127.171875 390.589844 162 382.222656 166.859375 378.441406 C 170.910156 375.203125 171.449219 334.429688 167.398438 324.171875 C 166.050781 320.121094 160.378906 314.992188 155.25 312.5625 C 145.800781 307.972656 144.71875 308.242188 97.738281 319.3125 C 48.328125 331.191406 40.5 334.429688 30.511719 349.550781 C 24.839844 357.652344 24.300781 361.429688 24.300781 395.179688 C 24.300781 426.769531 25.109375 432.980469 29.699219 440.542969 C 36.988281 452.691406 42.660156 455.121094 83.699219 462.953125 L 120.148438 469.972656 L 120.960938 489.410156 C 121.769531 512.632812 125.550781 510.472656 70.199219 522.621094 C 48.601562 527.480469 29.429688 532.609375 27.808594 533.960938 C 23.761719 536.929688 22.679688 654.652344 26.730469 654.652344 C 28.890625 654.652344 96.390625 631.160156 456.300781 505.882812 C 537.300781 477.53125 638.820312 442.160156 681.75 427.3125 C 724.949219 412.460938 764.101562 397.070312 768.960938 393.5625 C 782.191406 383.570312 785.699219 374.390625 785.699219 349.550781 C 785.699219 324.710938 786.78125 325.519531 760.320312 332.269531 C 739.53125 337.671875 737.101562 339.832031 737.101562 352.519531 C 737.101562 358.191406 735.75 363.589844 734.128906 364.671875 C 729 367.910156 693.089844 376.28125 690.660156 374.929688 C 687.421875 372.769531 687.960938 320.390625 691.46875 318.230469 C 693.089844 317.421875 709.019531 313.101562 726.839844 309.050781 C 761.128906 301.222656 769.769531 296.632812 779.761719 282.050781 C 785.429688 273.679688 785.699219 270.441406 785.699219 226.429688 C 785.699219 181.882812 785.429688 179.453125 779.761719 172.703125 C 770.578125 162.171875 759.511719 162.441406 712.53125 173.511719 Z M 712.53125 173.511719 " fill-opacity="1" fill-rule="nonzero"/><path fill="#f5ca53" d="M 718.199219 206.992188 C 695.519531 213.472656 686.339844 217.792969 683.910156 223.460938 C 682.289062 226.703125 681.210938 238.851562 681.480469 250.191406 C 681.75 272.332031 685.261719 279.351562 695.519531 279.890625 C 706.859375 280.429688 730.890625 273.410156 737.910156 267.472656 C 744.660156 261.53125 745.199219 259.910156 745.199219 238.3125 C 745.199219 218.0625 744.660156 214.820312 738.988281 209.691406 C 731.96875 203.210938 731.699219 203.210938 718.199219 206.992188 Z M 737.371094 237.5 C 737.101562 250.730469 735.75 262.609375 734.941406 263.691406 C 732.511719 266.121094 701.191406 273.953125 694.171875 273.953125 C 688.5 273.953125 688.230469 272.871094 689.039062 247.761719 L 689.851562 221.570312 L 707.398438 216.980469 C 717.121094 214.28125 727.921875 212.390625 731.699219 212.660156 C 738.179688 213.203125 738.179688 213.472656 737.371094 237.5 Z M 737.371094 237.5 " fill-opacity="1" fill-rule="nonzero"/><path fill="#f5ca53" d="M 371.25 254.511719 C 362.339844 256.671875 354.238281 259.910156 353.160156 261.53125 C 350.460938 265.582031 350.460938 297.710938 353.160156 299.332031 C 355.589844 300.679688 391.230469 292.582031 396.359375 289.339844 C 398.519531 287.992188 399.601562 280.429688 399.601562 268.28125 C 399.601562 246.679688 399.871094 246.953125 371.25 254.511719 Z M 391.5 264.5 C 395.011719 276.652344 391.5 283.941406 380.699219 287.179688 C 361.800781 292.851562 359.101562 291.769531 359.101562 278.269531 C 359.101562 265.042969 360.71875 263.421875 373.410156 261.261719 C 378.269531 260.453125 382.589844 259.371094 383.128906 258.832031 C 385.558594 256.402344 390.148438 259.640625 391.5 264.5 Z M 391.5 264.5 " fill-opacity="1" fill-rule="nonzero"/></svg>