<svg xmlns:dc="http://purl.org/dc/elements/1.1/" xmlns:cc="http://creativecommons.org/ns#" xmlns:rdf="http://www.w3.org/1999/02/22-rdf-syntax-ns#" xmlns:svg="http://www.w3.org/2000/svg" xmlns="http://www.w3.org/2000/svg" xmlns:sodipodi="http://sodipodi.sourceforge.net/DTD/sodipodi-0.dtd" xmlns:inkscape="http://www.inkscape.org/namespaces/inkscape" width="128.99966" height="83.279358" viewBox="0 0 34.131161 22.034331" version="1.1" id="svg1381" inkscape:version="0.92.0 r15299" xmlns:xlink="http://www.w3.org/1999/xlink">
 <defs id="defs1375">
 </defs>
 <sodipodi:namedview id="base" pagecolor="#ffffff" bordercolor="#666666" borderopacity="1.0" inkscape:pageopacity="0.0" inkscape:pageshadow="2" inkscape:zoom="6.4779309" inkscape:cx="63.999835" inkscape:cy="41.139679" inkscape:document-units="mm" inkscape:current-layer="layer1" showgrid="false" fit-margin-top="0" fit-margin-left="0" fit-margin-right="0" fit-margin-bottom="0" units="px" inkscape:window-width="1280" inkscape:window-height="744" inkscape:window-x="-4" inkscape:window-y="-4" inkscape:window-maximized="1">
 </sodipodi:namedview>
 <metadata id="metadata1378">
  <rdf:RDF>
   <cc:Work rdf:about="">
    <dc:format>
     image/svg+xml
    </dc:format>
    <dc:type rdf:resource="http://purl.org/dc/dcmitype/StillImage">
    </dc:type>
    <dc:title>
    </dc:title>
   </cc:Work>
  </rdf:RDF>
 </metadata>
 <g inkscape:label="Layer 1" inkscape:groupmode="layer" id="layer1" transform="translate(-8.7689784,-129.17978)">
  <path style="fill:#F5CA53;fill-rule:evenodd;stroke:none;stroke-width:1.20951092" inkscape:connector-curvature="0" d="m 38.513237,134.19189 c 0.05303,0.0366 0.123884,0.0457 0.198855,0.0274 l 1.564692,-0.36937 c 0.165941,-0.0411 0.30034,-0.19931 0.30034,-0.35611 v -1.82732 c 0,-0.0754 -0.032,-0.1376 -0.08731,-0.17599 -0.03657,-0.0229 -0.08,-0.0366 -0.127541,-0.0366 -0.02286,0 -0.04663,0.003 -0.07131,0.009 l -1.564692,0.36982 c -0.165484,0.0411 -0.300339,0.19886 -0.300339,0.35611 v 1.82755 c 0,0.0754 0.032,0.1376 0.08731,0.17554 m 4.254355,2.64207 v 1.24584 c 0,0.77481 -0.614668,1.55578 -1.429654,1.81639 l -32.037191,11.1629 c -0.013714,0.005 -0.027428,0.009 -0.041142,0.0137 -0.027428,0.005 -0.058057,0.009 -0.085942,0.009 -0.060342,0 -0.116113,-0.0183 -0.1618268,-0.0471 -0.070399,-0.048 -0.109256,-0.12434 -0.109256,-0.21531 v -4.78308 c 0,-0.17828 0.1535984,-0.35931 0.3423964,-0.40411 l 3.6998914,-0.87459 c 0.165027,-0.0366 0.298969,-0.19795 0.298969,-0.35429 l -0.0015,-1.30714 c 0,-0.10697 -0.06263,-0.18651 -0.164112,-0.20708 l -2.731582,-0.50034 c -0.8779791,-0.17462 -1.4453788,-0.87825 -1.4453788,-1.79253 l 0.00114,-2.12436 c 0,-0.81851 0.7046783,-1.65087 1.5708648,-1.85589 l 3.375506,-0.79785 c 0.412796,-0.0974 0.80374,-0.0411 1.101337,0.16092 0.312225,0.2112 0.484155,0.55318 0.484155,0.96191 l 5.94e-4,1.63897 c 0,0.17783 -0.153598,0.35931 -0.341939,0.40411 l -1.490681,0.352 c -0.09234,0.0229 -0.180113,0.009 -0.247769,-0.0366 -0.07086,-0.0475 -0.109256,-0.12389 -0.109256,-0.21531 v -0.95698 c 0,-0.0754 -0.032,-0.13805 -0.08686,-0.17599 -0.05349,-0.0366 -0.12297,-0.0457 -0.198855,-0.0274 l -1.564692,0.36982 c -0.165484,0.0411 -0.300797,0.19886 -0.300797,0.35611 v 1.50147 c 0,0.10743 0.06263,0.18697 0.164112,0.20754 l 2.73972,0.50578 c 0.872402,0.13943 1.436693,0.80534 1.436693,1.69777 l 0.0023,1.869 c 0,0.19795 -0.04114,0.40046 -0.12297,0.60283 l 2.03618,-0.48118 v -9.23821 c 0,-0.17828 0.153141,-0.35931 0.341939,-0.40365 l 1.490635,-0.35291 c 0.0928,-0.0229 0.18057,-0.009 0.247769,0.0366 0.0704,0.0475 0.109256,0.12434 0.109256,0.21486 v 8.39451 l 2.241805,-0.53457 c 0.09326,-0.0229 0.181027,-0.009 0.248226,0.0366 0.0704,0.048 0.108799,0.12434 0.108799,0.21531 l 0.0017,0.49887 1.298821,-0.30719 8.68e-4,-5.84182 c 0,-0.17828 0.153141,-0.35931 0.342397,-0.40411 l 1.490681,-0.35245 c 0.09189,-0.0229 0.180112,-0.009 0.247769,0.0366 0.0704,0.0475 0.109256,0.12389 0.109256,0.21486 l 8.68e-4,5.82787 2.109006,-0.49833 v -8.07708 c 0,-0.81873 0.704724,-1.65114 1.570909,-1.85589 l 3.370438,-0.79688 c 0.411881,-0.0974 0.80374,-0.0411 1.101062,0.16137 0.312226,0.2112 0.484155,0.55295 0.484155,0.96191 l -0.0017,2.23581 c 0,0.17829 -0.153599,0.35931 -0.342397,0.40411 l -1.490681,0.35246 c -0.09234,0.0229 -0.180112,0.009 -0.247769,-0.0366 -0.0704,-0.0476 -0.109256,-0.12435 -0.109256,-0.21486 l 0.0031,-1.55431 c 0,-0.0754 -0.032,-0.1376 -0.08731,-0.17554 -0.05303,-0.0366 -0.123427,-0.0462 -0.198855,-0.0274 l -1.564692,0.36982 c -0.165484,0.0411 -0.30034,0.19886 -0.30034,0.35611 v 6.27957 c 0,0.0754 0.032,0.1376 0.08686,0.176 0.05303,0.0366 0.123427,0.0457 0.198855,0.0274 l 1.564705,-0.36983 c 0.165484,-0.0411 0.30034,-0.19885 0.30034,-0.35565 l -0.0031,-0.60676 c 0,-0.17828 0.153598,-0.35931 0.342396,-0.40411 l 1.490682,-0.352 c 0.09234,-0.0229 0.180569,-0.009 0.247768,0.0366 0.0704,0.048 0.109256,0.12435 0.109256,0.21532 l 0.0014,1.70942 1.96839,-0.46532 v -8.0769 c 0,-0.81869 0.704953,-1.65086 1.570863,-1.85584 l 3.375782,-0.79789 c 0.412338,-0.0978 0.80374,-0.0411 1.101108,0.16091 0.312225,0.2112 0.484155,0.55291 0.484155,0.96191 l 0.0011,3.19178 c 0,0.81846 -0.704678,1.65087 -1.570863,1.85562 l -2.469734,0.58344 c -0.165484,0.0411 -0.30034,0.19886 -0.30034,0.35611 v 2.00053 c 0,0.0754 0.032,0.13806 0.08731,0.17554 0.05303,0.0366 0.123884,0.0457 0.198855,0.0274 l 1.564696,-0.36982 c 0.165941,-0.0411 0.30034,-0.19886 0.30034,-0.35611 l -5.53e-4,-0.60777 c 0,-0.17828 0.153598,-0.35931 0.342396,-0.40365 l 1.490732,-0.35246 c 0.09234,-0.0229 0.181026,-0.009 0.248683,0.0366 0.0704,0.0475 0.109256,0.12388 0.109256,0.21485 m -19.327727,-1.72367 v -1.23615 c 0,-0.17783 0.153141,-0.35931 0.342396,-0.40411 l 1.490681,-0.352 c 0.09189,-0.0229 0.180113,-0.009 0.247312,0.0366 0.0704,0.048 0.109256,0.12435 0.109256,0.21532 v 1.23591 c 0,0.17829 -0.153598,0.35932 -0.342396,0.40411 l -1.490407,0.35246 c -0.02743,0.009 -0.05806,0.009 -0.08594,0.009 -0.06034,0 -0.116113,-0.0183 -0.161827,-0.0471 -0.0704,-0.0476 -0.109256,-0.12389 -0.109256,-0.21486" id="powered-by-slice-logo">
  </path>
 </g>
</svg>